<svg xmlns="http://www.w3.org/2000/svg" xmlns:xlink="http://www.w3.org/1999/xlink" id="processonSvg1000" viewBox="53.0 497.0 947.0 802.125" width="947.0" height="802.125"><defs id="ProcessOnDefs1001"><marker id="ProcessOnMarker1034" markerUnits="userSpaceOnUse" orient="auto" markerWidth="16.23606797749979" markerHeight="10.550836550532098" viewBox="-1.0 -1.3763819204711736 16.23606797749979 10.550836550532098" refX="-1.0" refY="3.8990363547948754"><path id="ProcessOnPath1035" d="M12.0 3.8990363547948754L0.0 7.798072709589751V0.0Z" stroke="#323232" stroke-width="2.0" fill="#323232" transform="matrix(1.0,0.0,0.0,1.0,0.0,0.0)"/></marker><marker id="ProcessOnMarker1038" markerUnits="userSpaceOnUse" orient="auto" markerWidth="16.23606797749979" markerHeight="10.550836550532098" viewBox="-1.0 -1.3763819204711736 16.23606797749979 10.550836550532098" refX="-1.0" refY="3.8990363547948754"><path id="ProcessOnPath1039" d="M12.0 3.8990363547948754L0.0 7.798072709589751V0.0Z" stroke="#323232" stroke-width="2.0" fill="#323232" transform="matrix(1.0,0.0,0.0,1.0,0.0,0.0)"/></marker><marker id="ProcessOnMarker1042" markerUnits="userSpaceOnUse" orient="auto" markerWidth="16.23606797749979" markerHeight="10.550836550532098" viewBox="-1.0 -1.3763819204711736 16.23606797749979 10.550836550532098" refX="-1.0" refY="3.8990363547948754"><path id="ProcessOnPath1043" d="M12.0 3.8990363547948754L0.0 7.798072709589751V0.0Z" stroke="#323232" stroke-width="2.0" fill="#323232" transform="matrix(1.0,0.0,0.0,1.0,0.0,0.0)"/></marker><marker id="ProcessOnMarker1079" markerUnits="userSpaceOnUse" orient="auto" markerWidth="16.23606797749979" markerHeight="10.550836550532098" viewBox="-1.0 -1.3763819204711736 16.23606797749979 10.550836550532098" refX="-1.0" refY="3.8990363547948754"><path id="ProcessOnPath1080" d="M12.0 3.8990363547948754L0.0 7.798072709589751V0.0Z" stroke="#323232" stroke-width="2.0" fill="#323232" transform="matrix(1.0,0.0,0.0,1.0,0.0,0.0)"/></marker><marker id="ProcessOnMarker1083" markerUnits="userSpaceOnUse" orient="auto" markerWidth="16.23606797749979" markerHeight="10.550836550532098" viewBox="-1.0 -1.3763819204711736 16.23606797749979 10.550836550532098" refX="-1.0" refY="3.8990363547948754"><path id="ProcessOnPath1084" d="M12.0 3.8990363547948754L0.0 7.798072709589751V0.0Z" stroke="#323232" stroke-width="2.0" fill="#323232" transform="matrix(1.0,0.0,0.0,1.0,0.0,0.0)"/></marker><marker id="ProcessOnMarker1087" markerUnits="userSpaceOnUse" orient="auto" markerWidth="16.23606797749979" markerHeight="10.550836550532098" viewBox="-1.0 -1.3763819204711736 16.23606797749979 10.550836550532098" refX="-1.0" refY="3.8990363547948754"><path id="ProcessOnPath1088" d="M12.0 3.8990363547948754L0.0 7.798072709589751V0.0Z" stroke="#323232" stroke-width="2.0" fill="#323232" transform="matrix(1.0,0.0,0.0,1.0,0.0,0.0)"/></marker><marker id="ProcessOnMarker1101" markerUnits="userSpaceOnUse" orient="auto" markerWidth="16.23606797749979" markerHeight="10.550836550532098" viewBox="-1.0 -1.3763819204711736 16.23606797749979 10.550836550532098" refX="-1.0" refY="3.8990363547948754"><path id="ProcessOnPath1102" d="M12.0 3.8990363547948754L0.0 7.798072709589751V0.0Z" stroke="#323232" stroke-width="2.0" fill="#323232" transform="matrix(1.0,0.0,0.0,1.0,0.0,0.0)"/></marker><marker id="ProcessOnMarker1105" markerUnits="userSpaceOnUse" orient="auto" markerWidth="16.23606797749979" markerHeight="10.550836550532098" viewBox="-1.0 -1.3763819204711736 16.23606797749979 10.550836550532098" refX="-1.0" refY="3.8990363547948754"><path id="ProcessOnPath1106" d="M12.0 3.8990363547948754L0.0 7.798072709589751V0.0Z" stroke="#323232" stroke-width="2.0" fill="#323232" transform="matrix(1.0,0.0,0.0,1.0,0.0,0.0)"/></marker><marker id="ProcessOnMarker1116" markerUnits="userSpaceOnUse" orient="auto" markerWidth="16.23606797749979" markerHeight="10.550836550532098" viewBox="-1.0 -1.3763819204711736 16.23606797749979 10.550836550532098" refX="-1.0" refY="3.8990363547948754"><path id="ProcessOnPath1117" d="M12.0 3.8990363547948754L0.0 7.798072709589751V0.0Z" stroke="#323232" stroke-width="2.0" fill="#323232" transform="matrix(1.0,0.0,0.0,1.0,0.0,0.0)"/></marker><marker id="ProcessOnMarker1135" markerUnits="userSpaceOnUse" orient="auto" markerWidth="16.23606797749979" markerHeight="10.550836550532098" viewBox="-1.0 -1.3763819204711736 16.23606797749979 10.550836550532098" refX="-1.0" refY="3.8990363547948754"><path id="ProcessOnPath1136" d="M12.0 3.8990363547948754L0.0 7.798072709589751V0.0Z" stroke="#323232" stroke-width="2.0" fill="#323232" transform="matrix(1.0,0.0,0.0,1.0,0.0,0.0)"/></marker><marker id="ProcessOnMarker1139" markerUnits="userSpaceOnUse" orient="auto" markerWidth="16.23606797749979" markerHeight="10.550836550532098" viewBox="-1.0 -1.3763819204711736 16.23606797749979 10.550836550532098" refX="-1.0" refY="3.8990363547948754"><path id="ProcessOnPath1140" d="M12.0 3.8990363547948754L0.0 7.798072709589751V0.0Z" stroke="#323232" stroke-width="2.0" fill="#323232" transform="matrix(1.0,0.0,0.0,1.0,0.0,0.0)"/></marker><marker id="ProcessOnMarker1143" markerUnits="userSpaceOnUse" orient="auto" markerWidth="16.23606797749979" markerHeight="10.550836550532098" viewBox="-1.0 -1.3763819204711736 16.23606797749979 10.550836550532098" refX="-1.0" refY="3.8990363547948754"><path id="ProcessOnPath1144" d="M12.0 3.8990363547948754L0.0 7.798072709589751V0.0Z" stroke="#323232" stroke-width="2.0" fill="#323232" transform="matrix(1.0,0.0,0.0,1.0,0.0,0.0)"/></marker><marker id="ProcessOnMarker1147" markerUnits="userSpaceOnUse" orient="auto" markerWidth="16.23606797749979" markerHeight="10.550836550532098" viewBox="-1.0 -1.3763819204711736 16.23606797749979 10.550836550532098" refX="-1.0" refY="3.8990363547948754"><path id="ProcessOnPath1148" d="M12.0 3.8990363547948754L0.0 7.798072709589751V0.0Z" stroke="#323232" stroke-width="2.0" fill="#323232" transform="matrix(1.0,0.0,0.0,1.0,0.0,0.0)"/></marker><marker id="ProcessOnMarker1158" markerUnits="userSpaceOnUse" orient="auto" markerWidth="16.23606797749979" markerHeight="10.550836550532098" viewBox="-1.0 -1.3763819204711736 16.23606797749979 10.550836550532098" refX="-1.0" refY="3.8990363547948754"><path id="ProcessOnPath1159" d="M12.0 3.8990363547948754L0.0 7.798072709589751V0.0Z" stroke="#323232" stroke-width="2.0" fill="#323232" transform="matrix(1.0,0.0,0.0,1.0,0.0,0.0)"/></marker><marker id="ProcessOnMarker1166" markerUnits="userSpaceOnUse" orient="auto" markerWidth="16.23606797749979" markerHeight="10.550836550532098" viewBox="-1.0 -1.3763819204711736 16.23606797749979 10.550836550532098" refX="-1.0" refY="3.8990363547948754"><path id="ProcessOnPath1167" d="M12.0 3.8990363547948754L0.0 7.798072709589751V0.0Z" stroke="#323232" stroke-width="2.0" fill="#323232" transform="matrix(1.0,0.0,0.0,1.0,0.0,0.0)"/></marker><marker id="ProcessOnMarker1175" markerUnits="userSpaceOnUse" orient="auto" markerWidth="16.23606797749979" markerHeight="10.550836550532098" viewBox="-1.0 -1.3763819204711736 16.23606797749979 10.550836550532098" refX="-1.0" refY="3.8990363547948754"><path id="ProcessOnPath1176" d="M12.0 3.8990363547948754L0.0 7.798072709589751V0.0Z" stroke="#323232" stroke-width="2.0" fill="#323232" transform="matrix(1.0,0.0,0.0,1.0,0.0,0.0)"/></marker></defs><g id="ProcessOnG1002"><path id="ProcessOnPath1003" d="M53.0 497.0H1000.0V1299.125H53.0V497.0Z" fill="#ffffff"/><g id="ProcessOnG1004"><g id="ProcessOnG1005" transform="matrix(1.0,0.0,0.0,1.0,73.0,596.5)" opacity="1.0"><path id="ProcessOnPath1006" d="M0.0 4.0Q0.0 0.0 4.0 0.0L226.0 0.0Q230.0 0.0 230.0 4.0L230.0 138.0Q230.0 142.0 226.0 142.0L4.0 142.0Q0.0 142.0 0.0 138.0Z" stroke="none" stroke-width="0.0" stroke-dasharray="none" opacity="1.0" fill="#5c5c5c"/><path id="ProcessOnPath1007" d="M0.0 30.0L230.0 30.0" stroke="none" stroke-width="0.0" stroke-dasharray="none" opacity="1.0" fill="none"/><path id="ProcessOnPath1008" d="M0.0 0.0L230.0 0.0L230.0 142.0L0.0 142.0Z" stroke="none" stroke-width="0.0" stroke-dasharray="none" opacity="1.0" fill="none"/><g id="ProcessOnG1009" transform="matrix(1.0,0.0,0.0,1.0,10.0,6.875)"><text id="ProcessOnText1010" fill="#ffffff" font-size="13" x="104.0" y="13.325" font-family="微软雅黑" font-weight="bold" font-style="normal" text-decoration="none" family="微软雅黑" text-anchor="middle" size="13">NIC</text></g><g id="ProcessOnG1011" transform="matrix(1.0,0.0,0.0,1.0,10.0,29.125)"><text id="ProcessOnText1012" fill="#ffffff" font-size="13" x="104.0" y="13.325" font-family="微软雅黑" font-weight="bold" font-style="normal" text-decoration="none" family="微软雅黑" text-anchor="middle" size="13">+ Receive</text><text id="ProcessOnText1013" fill="#ffffff" font-size="13" x="104.0" y="29.575" font-family="微软雅黑" font-weight="bold" font-style="normal" text-decoration="none" family="微软雅黑" text-anchor="middle" size="13">+ Send</text><text id="ProcessOnText1014" fill="#ffffff" font-size="13" x="104.0" y="45.825" font-family="微软雅黑" font-weight="bold" font-style="normal" text-decoration="none" family="微软雅黑" text-anchor="middle" size="13">+ Statistic</text><text id="ProcessOnText1015" fill="#ffffff" font-size="13" x="104.0" y="62.075" font-family="微软雅黑" font-weight="bold" font-style="normal" text-decoration="none" family="微软雅黑" text-anchor="middle" size="13">+ Config</text><text id="ProcessOnText1016" fill="#ffffff" font-size="13" x="104.0" y="78.325" font-family="微软雅黑" font-weight="bold" font-style="normal" text-decoration="none" family="微软雅黑" text-anchor="middle" size="13">+ Init</text><text id="ProcessOnText1017" fill="#ffffff" font-size="13" x="104.0" y="94.575" font-family="微软雅黑" font-weight="bold" font-style="normal" text-decoration="none" family="微软雅黑" text-anchor="middle" size="13">+ Destroy</text><text id="ProcessOnText1018" fill="#ffffff" font-size="13" x="104.0" y="110.825" font-family="微软雅黑" font-weight="bold" font-style="normal" text-decoration="none" family="微软雅黑" text-anchor="middle" size="13"></text></g></g><g id="ProcessOnG1019" transform="matrix(1.0,0.0,0.0,1.0,404.0,521.0)" opacity="1.0"><path id="ProcessOnPath1020" d="M0.0 0.0L100.0 0.0L100.0 70.0L0.0 70.0Z" stroke="none" stroke-width="0.0" stroke-dasharray="none" opacity="1.0" fill="#5c5c5c"/><g id="ProcessOnG1021" transform="matrix(1.0,0.0,0.0,1.0,10.0,26.875)"><text id="ProcessOnText1022" fill="#ffffff" font-size="13" x="39.0" y="13.325" font-family="微软雅黑" font-weight="normal" font-style="normal" text-decoration="none" family="微软雅黑" text-anchor="middle" size="13">DPDK</text></g></g><g id="ProcessOnG1023" transform="matrix(1.0,0.0,0.0,1.0,404.0,608.5)" opacity="1.0"><path id="ProcessOnPath1024" d="M0.0 0.0L100.0 0.0L100.0 70.0L0.0 70.0Z" stroke="none" stroke-width="0.0" stroke-dasharray="none" opacity="1.0" fill="#5c5c5c"/><g id="ProcessOnG1025" transform="matrix(1.0,0.0,0.0,1.0,10.0,26.875)"><text id="ProcessOnText1026" fill="#ffffff" font-size="13" x="39.0" y="13.325" font-family="微软雅黑" font-weight="normal" font-style="normal" text-decoration="none" family="微软雅黑" text-anchor="middle" size="13">PF_RING</text></g></g><g id="ProcessOnG1027" transform="matrix(1.0,0.0,0.0,1.0,404.0,700.5)" opacity="1.0"><path id="ProcessOnPath1028" d="M0.0 0.0L100.0 0.0L100.0 70.0L0.0 70.0Z" stroke="none" stroke-width="0.0" stroke-dasharray="none" opacity="1.0" fill="#5c5c5c"/><g id="ProcessOnG1029" transform="matrix(1.0,0.0,0.0,1.0,10.0,18.75)"><text id="ProcessOnText1030" fill="#ffffff" font-size="13" x="39.0" y="13.325" font-family="微软雅黑" font-weight="normal" font-style="normal" text-decoration="none" family="微软雅黑" text-anchor="middle" size="13">Embeded </text><text id="ProcessOnText1031" fill="#ffffff" font-size="13" x="39.0" y="29.575" font-family="微软雅黑" font-weight="normal" font-style="normal" text-decoration="none" family="微软雅黑" text-anchor="middle" size="13">Device</text></g></g><g id="ProcessOnG1032"><path id="ProcessOnPath1033" d="M404.0 556.0L353.5 556.0L353.5 643.5L318.2360679774998 643.5" stroke="#323232" stroke-width="2.0" stroke-dasharray="none" fill="none" marker-end="url(#ProcessOnMarker1034)"/></g><g id="ProcessOnG1036"><path id="ProcessOnPath1037" d="M404.0 643.5L353.5 643.5L353.5 643.5L318.2360679774998 643.5" stroke="#323232" stroke-width="2.0" stroke-dasharray="none" fill="none" marker-end="url(#ProcessOnMarker1038)"/></g><g id="ProcessOnG1040"><path id="ProcessOnPath1041" d="M404.0 735.5L353.5 735.5L353.5 643.5L318.2360679774998 643.5" stroke="#323232" stroke-width="2.0" stroke-dasharray="none" fill="none" marker-end="url(#ProcessOnMarker1042)"/></g><g id="ProcessOnG1044" transform="matrix(1.0,0.0,0.0,1.0,407.0,858.0)" opacity="1.0"><path id="ProcessOnPath1045" d="M0.0 4.0Q0.0 0.0 4.0 0.0L226.0 0.0Q230.0 0.0 230.0 4.0L230.0 58.0Q230.0 62.0 226.0 62.0L4.0 62.0Q0.0 62.0 0.0 58.0Z" stroke="none" stroke-width="0.0" stroke-dasharray="none" opacity="1.0" fill="#5c5c5c"/><path id="ProcessOnPath1046" d="M0.0 30.0L230.0 30.0" stroke="none" stroke-width="0.0" stroke-dasharray="none" opacity="1.0" fill="none"/><path id="ProcessOnPath1047" d="M0.0 0.0L230.0 0.0L230.0 62.0L0.0 62.0Z" stroke="none" stroke-width="0.0" stroke-dasharray="none" opacity="1.0" fill="none"/><g id="ProcessOnG1048" transform="matrix(1.0,0.0,0.0,1.0,10.0,6.875)"><text id="ProcessOnText1049" fill="#ffffff" font-size="13" x="104.0" y="13.325" font-family="微软雅黑" font-weight="bold" font-style="normal" text-decoration="none" family="微软雅黑" text-anchor="middle" size="13">Protocol 1...N</text></g><g id="ProcessOnG1050" transform="matrix(1.0,0.0,0.0,1.0,10.0,29.75)"><text id="ProcessOnText1051" fill="#ffffff" font-size="13" x="104.0" y="13.325" font-family="微软雅黑" font-weight="bold" font-style="normal" text-decoration="none" family="微软雅黑" text-anchor="middle" size="13">+input</text><text id="ProcessOnText1052" fill="#ffffff" font-size="13" x="104.0" y="29.575" font-family="微软雅黑" font-weight="bold" font-style="normal" text-decoration="none" family="微软雅黑" text-anchor="middle" size="13">+output</text></g></g><g id="ProcessOnG1053" transform="matrix(1.0,0.0,0.0,1.0,669.0,517.0)" opacity="1.0"><path id="ProcessOnPath1054" d="M0.0 4.0Q0.0 0.0 4.0 0.0L226.0 0.0Q230.0 0.0 230.0 4.0L230.0 74.0Q230.0 78.0 226.0 78.0L4.0 78.0Q0.0 78.0 0.0 74.0Z" stroke="none" stroke-width="0.0" stroke-dasharray="none" opacity="1.0" fill="#5c5c5c"/><path id="ProcessOnPath1055" d="M0.0 30.0L230.0 30.0" stroke="none" stroke-width="0.0" stroke-dasharray="none" opacity="1.0" fill="none"/><path id="ProcessOnPath1056" d="M0.0 0.0L230.0 0.0L230.0 78.0L0.0 78.0Z" stroke="none" stroke-width="0.0" stroke-dasharray="none" opacity="1.0" fill="none"/><g id="ProcessOnG1057" transform="matrix(1.0,0.0,0.0,1.0,10.0,6.875)"><text id="ProcessOnText1058" fill="#ffffff" font-size="13" x="104.0" y="13.325" font-family="微软雅黑" font-weight="bold" font-style="normal" text-decoration="none" family="微软雅黑" text-anchor="middle" size="13">DPDK implement</text></g><g id="ProcessOnG1059" transform="matrix(1.0,0.0,0.0,1.0,10.0,29.625)"><text id="ProcessOnText1060" fill="#ffffff" font-size="13" x="104.0" y="13.325" font-family="微软雅黑" font-weight="bold" font-style="normal" text-decoration="none" family="微软雅黑" text-anchor="middle" size="13">+ mtu</text><text id="ProcessOnText1061" fill="#ffffff" font-size="13" x="104.0" y="29.575" font-family="微软雅黑" font-weight="bold" font-style="normal" text-decoration="none" family="微软雅黑" text-anchor="middle" size="13">+ ip</text><text id="ProcessOnText1062" fill="#ffffff" font-size="13" x="104.0" y="45.825" font-family="微软雅黑" font-weight="bold" font-style="normal" text-decoration="none" family="微软雅黑" text-anchor="middle" size="13">+ name</text></g></g><g id="ProcessOnG1063" transform="matrix(1.0,0.0,0.0,1.0,669.0,604.5)" opacity="1.0"><path id="ProcessOnPath1064" d="M0.0 4.0Q0.0 0.0 4.0 0.0L226.0 0.0Q230.0 0.0 230.0 4.0L230.0 74.0Q230.0 78.0 226.0 78.0L4.0 78.0Q0.0 78.0 0.0 74.0Z" stroke="none" stroke-width="0.0" stroke-dasharray="none" opacity="1.0" fill="#5c5c5c"/><path id="ProcessOnPath1065" d="M0.0 30.0L230.0 30.0" stroke="none" stroke-width="0.0" stroke-dasharray="none" opacity="1.0" fill="none"/><path id="ProcessOnPath1066" d="M0.0 0.0L230.0 0.0L230.0 78.0L0.0 78.0Z" stroke="none" stroke-width="0.0" stroke-dasharray="none" opacity="1.0" fill="none"/><g id="ProcessOnG1067" transform="matrix(1.0,0.0,0.0,1.0,10.0,6.875)"><text id="ProcessOnText1068" fill="#ffffff" font-size="13" x="104.0" y="13.325" font-family="微软雅黑" font-weight="bold" font-style="normal" text-decoration="none" family="微软雅黑" text-anchor="middle" size="13">PF_RING implement</text></g><g id="ProcessOnG1069" transform="matrix(1.0,0.0,0.0,1.0,10.0,29.625)"><text id="ProcessOnText1070" fill="#ffffff" font-size="13" x="104.0" y="13.325" font-family="微软雅黑" font-weight="bold" font-style="normal" text-decoration="none" family="微软雅黑" text-anchor="middle" size="13">+ mtu</text><text id="ProcessOnText1071" fill="#ffffff" font-size="13" x="104.0" y="29.575" font-family="微软雅黑" font-weight="bold" font-style="normal" text-decoration="none" family="微软雅黑" text-anchor="middle" size="13">+ ip</text><text id="ProcessOnText1072" fill="#ffffff" font-size="13" x="104.0" y="45.825" font-family="微软雅黑" font-weight="bold" font-style="normal" text-decoration="none" family="微软雅黑" text-anchor="middle" size="13">+ name</text></g></g><g id="ProcessOnG1073" transform="matrix(1.0,0.0,0.0,1.0,88.0,814.0)" opacity="1.0"><path id="ProcessOnPath1074" d="M0.0 18.75Q100.0 -18.75 200.0 18.75L200.0 150.0L0.0 150.0L0.0 18.75Z" stroke="none" stroke-width="0.0" stroke-dasharray="none" opacity="1.0" fill="#5c5c5c"/><g id="ProcessOnG1075" transform="matrix(1.0,0.0,0.0,1.0,10.0,66.875)"><text id="ProcessOnText1076" fill="#ffffff" font-size="13" x="89.0" y="13.325" font-family="微软雅黑" font-weight="normal" font-style="normal" text-decoration="none" family="微软雅黑" text-anchor="middle" size="13">Packet</text></g></g><g id="ProcessOnG1077"><path id="ProcessOnPath1078" d="M188.0 738.5L188.0 776.25L188.0 776.25L188.0 798.7639320225002" stroke="#323232" stroke-width="2.0" stroke-dasharray="none" fill="none" marker-end="url(#ProcessOnMarker1079)"/></g><g id="ProcessOnG1081"><path id="ProcessOnPath1082" d="M669.0 556.0L586.5 556.0L586.5 556.0L519.2360679774998 556.0" stroke="#323232" stroke-width="2.0" stroke-dasharray="none" fill="none" marker-end="url(#ProcessOnMarker1083)"/></g><g id="ProcessOnG1085"><path id="ProcessOnPath1086" d="M669.0 643.5L586.5 643.5L586.5 643.5L519.2360679774998 643.5" stroke="#323232" stroke-width="2.0" stroke-dasharray="none" fill="none" marker-end="url(#ProcessOnMarker1087)"/></g><g id="ProcessOnG1089" transform="matrix(1.0,0.0,0.0,1.0,669.0,696.5)" opacity="1.0"><path id="ProcessOnPath1090" d="M0.0 4.0Q0.0 0.0 4.0 0.0L226.0 0.0Q230.0 0.0 230.0 4.0L230.0 74.0Q230.0 78.0 226.0 78.0L4.0 78.0Q0.0 78.0 0.0 74.0Z" stroke="none" stroke-width="0.0" stroke-dasharray="none" opacity="1.0" fill="#5c5c5c"/><path id="ProcessOnPath1091" d="M0.0 30.0L230.0 30.0" stroke="none" stroke-width="0.0" stroke-dasharray="none" opacity="1.0" fill="none"/><path id="ProcessOnPath1092" d="M0.0 0.0L230.0 0.0L230.0 78.0L0.0 78.0Z" stroke="none" stroke-width="0.0" stroke-dasharray="none" opacity="1.0" fill="none"/><g id="ProcessOnG1093" transform="matrix(1.0,0.0,0.0,1.0,10.0,6.875)"><text id="ProcessOnText1094" fill="#ffffff" font-size="13" x="104.0" y="13.325" font-family="微软雅黑" font-weight="bold" font-style="normal" text-decoration="none" family="微软雅黑" text-anchor="middle" size="13">Embeded implement</text></g><g id="ProcessOnG1095" transform="matrix(1.0,0.0,0.0,1.0,10.0,29.625)"><text id="ProcessOnText1096" fill="#ffffff" font-size="13" x="104.0" y="13.325" font-family="微软雅黑" font-weight="bold" font-style="normal" text-decoration="none" family="微软雅黑" text-anchor="middle" size="13">+ mtu</text><text id="ProcessOnText1097" fill="#ffffff" font-size="13" x="104.0" y="29.575" font-family="微软雅黑" font-weight="bold" font-style="normal" text-decoration="none" family="微软雅黑" text-anchor="middle" size="13">+ ip</text><text id="ProcessOnText1098" fill="#ffffff" font-size="13" x="104.0" y="45.825" font-family="微软雅黑" font-weight="bold" font-style="normal" text-decoration="none" family="微软雅黑" text-anchor="middle" size="13">+ name</text></g></g><g id="ProcessOnG1099"><path id="ProcessOnPath1100" d="M669.0 735.5L586.5 735.5L586.5 735.5L519.2360679774998 735.5" stroke="#323232" stroke-width="2.0" stroke-dasharray="none" fill="none" marker-end="url(#ProcessOnMarker1101)"/></g><g id="ProcessOnG1103"><path id="ProcessOnPath1104" d="M288.0 889.0L347.5 889.0L347.5 889.0L391.7639320225002 889.0" stroke="#323232" stroke-width="2.0" stroke-dasharray="none" fill="none" marker-end="url(#ProcessOnMarker1105)"/><g id="ProcessOnG1107" transform="matrix(1.0,0.0,0.0,1.0,339.88196601125014,880.875)"><path id="ProcessOnPath1108" d="M0 0H32.0V16.25H0Z" fill="#fff" transform="matrix(1.0,0.0,0.0,1.0,-16.0,0.0)"/><text id="ProcessOnText1109" fill="#000000" font-size="13" x="0.0" y="13.325" font-family="微软雅黑" font-weight="normal" font-style="normal" text-decoration="none" family="微软雅黑" text-anchor="middle" size="13">input</text></g></g><g id="ProcessOnG1110" transform="matrix(1.0,0.0,0.0,1.0,757.0,864.0)" opacity="1.0"><path id="ProcessOnPath1111" d="M16.666666666666668 0.0L83.33333333333333 0.0C105.55555555555556 0.0 105.55555555555556 50.0 83.33333333333333 50.0L16.666666666666668 50.0C-5.555555555555556 50.0 -5.555555555555556 0.0 16.666666666666668 0.0Z" stroke="none" stroke-width="0.0" stroke-dasharray="none" opacity="1.0" fill="#5c5c5c"/><g id="ProcessOnG1112" transform="matrix(1.0,0.0,0.0,1.0,10.0,16.875)"><text id="ProcessOnText1113" fill="#ffffff" font-size="13" x="39.0" y="13.325" font-family="微软雅黑" font-weight="normal" font-style="normal" text-decoration="none" family="微软雅黑" text-anchor="middle" size="13">Action</text></g></g><g id="ProcessOnG1114"><path id="ProcessOnPath1115" d="M637.0 889.0L697.0 889.0L697.0 889.0L741.7639320225002 889.0" stroke="#323232" stroke-width="2.0" stroke-dasharray="none" fill="none" marker-end="url(#ProcessOnMarker1116)"/><g id="ProcessOnG1118" transform="matrix(1.0,0.0,0.0,1.0,689.3819660112501,880.875)"><path id="ProcessOnPath1119" d="M0 0H42.0V16.25H0Z" fill="#fff" transform="matrix(1.0,0.0,0.0,1.0,-21.0,0.0)"/><text id="ProcessOnText1120" fill="#000000" font-size="13" x="0.0" y="13.325" font-family="微软雅黑" font-weight="normal" font-style="normal" text-decoration="none" family="微软雅黑" text-anchor="middle" size="13">output</text></g></g><g id="ProcessOnG1121" transform="matrix(1.0,0.0,0.0,1.0,507.0,974.0)" opacity="1.0"><path id="ProcessOnPath1122" d="M0.0 0.0L100.0 0.0L100.0 70.0L0.0 70.0Z" stroke="none" stroke-width="0.0" stroke-dasharray="none" opacity="1.0" fill="#5c5c5c"/><g id="ProcessOnG1123" transform="matrix(1.0,0.0,0.0,1.0,10.0,26.875)"><text id="ProcessOnText1124" fill="#ffffff" font-size="13" x="39.0" y="13.325" font-family="微软雅黑" font-weight="normal" font-style="normal" text-decoration="none" family="微软雅黑" text-anchor="middle" size="13">Next Layer</text></g></g><g id="ProcessOnG1125" transform="matrix(1.0,0.0,0.0,1.0,757.0,974.0)" opacity="1.0"><path id="ProcessOnPath1126" d="M0.0 0.0L100.0 0.0L100.0 70.0L0.0 70.0Z" stroke="none" stroke-width="0.0" stroke-dasharray="none" opacity="1.0" fill="#5c5c5c"/><g id="ProcessOnG1127" transform="matrix(1.0,0.0,0.0,1.0,10.0,26.875)"><text id="ProcessOnText1128" fill="#ffffff" font-size="13" x="39.0" y="13.325" font-family="微软雅黑" font-weight="normal" font-style="normal" text-decoration="none" family="微软雅黑" text-anchor="middle" size="13">Forwording</text></g></g><g id="ProcessOnG1129" transform="matrix(1.0,0.0,0.0,1.0,880.0,974.0)" opacity="1.0"><path id="ProcessOnPath1130" d="M0.0 0.0L100.0 0.0L100.0 70.0L0.0 70.0Z" stroke="none" stroke-width="0.0" stroke-dasharray="none" opacity="1.0" fill="#5c5c5c"/><g id="ProcessOnG1131" transform="matrix(1.0,0.0,0.0,1.0,10.0,26.875)"><text id="ProcessOnText1132" fill="#ffffff" font-size="13" x="39.0" y="13.325" font-family="微软雅黑" font-weight="normal" font-style="normal" text-decoration="none" family="微软雅黑" text-anchor="middle" size="13">Drop</text></g></g><g id="ProcessOnG1133"><path id="ProcessOnPath1134" d="M807.0 914.0L807.0 944.0L557.0 944.0L557.0 958.7639320225002" stroke="#323232" stroke-width="2.0" stroke-dasharray="none" fill="none" marker-end="url(#ProcessOnMarker1135)"/></g><g id="ProcessOnG1137"><path id="ProcessOnPath1138" d="M807.0 914.0L807.0 944.0L807.0 944.0L807.0 958.7639320225002" stroke="#323232" stroke-width="2.0" stroke-dasharray="none" fill="none" marker-end="url(#ProcessOnMarker1139)"/></g><g id="ProcessOnG1141"><path id="ProcessOnPath1142" d="M807.0 914.0L807.0 944.0L930.0 944.0L930.0 958.7639320225002" stroke="#323232" stroke-width="2.0" stroke-dasharray="none" fill="none" marker-end="url(#ProcessOnMarker1143)"/></g><g id="ProcessOnG1145"><path id="ProcessOnPath1146" d="M507.0 1009.0L377.0 1009.0L377.0 889.0L391.7639320225002 889.0" stroke="#323232" stroke-width="2.0" stroke-dasharray="none" fill="none" marker-end="url(#ProcessOnMarker1147)"/><g id="ProcessOnG1149" transform="matrix(1.0,0.0,0.0,1.0,377.0,998.4930339887499)"><path id="ProcessOnPath1150" d="M0 0H44.0V16.25H0Z" fill="#fff" transform="matrix(1.0,0.0,0.0,1.0,-22.0,0.0)"/><text id="ProcessOnText1151" fill="#000000" font-size="13" x="0.0" y="13.325" font-family="微软雅黑" font-weight="normal" font-style="normal" text-decoration="none" family="微软雅黑" text-anchor="middle" size="13">reinput</text></g></g><g id="ProcessOnG1152" transform="matrix(1.0,0.0,0.0,1.0,634.0,974.0)" opacity="1.0"><path id="ProcessOnPath1153" d="M0.0 0.0L100.0 0.0L100.0 70.0L0.0 70.0Z" stroke="none" stroke-width="0.0" stroke-dasharray="none" opacity="1.0" fill="#5c5c5c"/><g id="ProcessOnG1154" transform="matrix(1.0,0.0,0.0,1.0,10.0,26.875)"><text id="ProcessOnText1155" fill="#ffffff" font-size="13" x="39.0" y="13.325" font-family="微软雅黑" font-weight="normal" font-style="normal" text-decoration="none" family="微软雅黑" text-anchor="middle" size="13">TO Socket</text></g></g><g id="ProcessOnG1156"><path id="ProcessOnPath1157" d="M807.0 914.0L807.0 944.0L684.0 944.0L684.0 958.7639320225002" stroke="#323232" stroke-width="2.0" stroke-dasharray="none" fill="none" marker-end="url(#ProcessOnMarker1158)"/></g><g id="ProcessOnG1160" transform="matrix(1.0,0.0,0.0,1.0,644.0,1082.5)" opacity="1.0"><path id="ProcessOnPath1161" d="M20.0 45.0L0.0 10.709999999999999Q40.0 -10.709999999999999 80.0 10.709999999999999L60.0 45.0Q40.0 36.0 20.0 45.0Z" stroke="none" stroke-width="0.0" stroke-dasharray="none" opacity="1.0" fill="#5c5c5c"/><g id="ProcessOnG1162" transform="matrix(1.0,0.0,0.0,1.0,10.0,14.375)"><text id="ProcessOnText1163" fill="#ffffff" font-size="13" x="29.0" y="13.325" font-family="微软雅黑" font-weight="normal" font-style="normal" text-decoration="none" family="微软雅黑" text-anchor="middle" size="13">Socket</text></g></g><g id="ProcessOnG1164"><path id="ProcessOnPath1165" d="M684.0 1044.0L684.0 1063.25L684.0 1063.25L684.0 1067.2639320225003" stroke="#323232" stroke-width="2.0" stroke-dasharray="none" fill="none" marker-end="url(#ProcessOnMarker1166)"/></g><g id="ProcessOnG1168" transform="matrix(1.0,0.0,0.0,1.0,649.0,1156.0)" opacity="1.0"><path id="ProcessOnPath1169" d="M23.333333333333332 12.5C23.333333333333332 -4.166666666666666 46.666666666666664 -4.166666666666666 46.666666666666664 12.5C46.666666666666664 29.166666666666668 23.333333333333332 29.166666666666668 23.333333333333332 12.5M35.0 25.0L35.0 75.0M35.0 75.0L5.833333333333333 100.0M35.0 75.0L64.16666666666666 100.0M0.0 50.0L70.0 50.0" stroke="#323232" stroke-width="2.0" stroke-dasharray="none" opacity="1.0" fill="#ffffff"/><path id="ProcessOnPath1170" d="M0.0 0.0L70.0 0.0L70.0 100.0L0.0 100.0Z" stroke="none" stroke-width="0.0" stroke-dasharray="none" opacity="1.0" fill="none"/><g id="ProcessOnG1171" transform="matrix(1.0,0.0,0.0,1.0,-20.0,106.875)"><text id="ProcessOnText1172" fill="#000000" font-size="13" x="54.0" y="13.325" font-family="微软雅黑" font-weight="normal" font-style="normal" text-decoration="none" family="微软雅黑" text-anchor="middle" size="13">User</text></g></g><g id="ProcessOnG1173"><path id="ProcessOnPath1174" d="M684.0 1127.5L684.0 1141.75L684.0 1141.75L684.0 1142.75" stroke="#323232" stroke-width="2.0" stroke-dasharray="none" fill="none" marker-end="url(#ProcessOnMarker1175)"/></g></g></g></svg>